<svg width="57" height="56" viewBox="0 0 57 56" fill="none" xmlns="http://www.w3.org/2000/svg">
<g clip-path="url(#clip0)">
<path fill-rule="evenodd" clip-rule="evenodd" d="M29.1451 0.601826C29.501 0.770848 29.7884 1.05304 29.9607 1.40267C33.215 8.0059 36.5928 13.028 40.0942 16.4691C43.5651 19.8801 48.6368 23.1914 55.3093 26.4029L55.5161 26.5022C56.3872 26.9192 56.7495 27.9512 56.3252 28.8072C56.1525 29.1557 55.8654 29.4368 55.5101 29.6052C48.8709 32.7525 43.7852 36.0386 40.2532 39.4636C36.7301 42.8799 33.3218 47.9195 30.0282 54.5824L29.9284 54.7848C29.6309 55.39 29.0208 55.747 28.3809 55.759L28.3809 0.429689C28.6376 0.429385 28.8984 0.48469 29.1451 0.601826Z" fill="#FF3600"/>
<path fill-rule="evenodd" clip-rule="evenodd" d="M28.6782 14.0669C28.8189 14.1324 28.9322 14.2437 28.9989 14.3819C30.6814 17.866 32.4304 20.5001 34.2458 22.2842C36.0343 24.0419 38.673 25.7466 42.1618 27.3984L42.3313 27.4783C42.6676 27.6361 42.81 28.032 42.6495 28.3625C42.5825 28.5002 42.4693 28.6111 42.3288 28.6763C38.8251 30.3033 36.1572 32.005 34.3252 33.7815C32.5114 35.5403 30.7584 38.1597 29.0663 41.6395L28.9858 41.8059C28.8725 42.0409 28.6369 42.1802 28.3892 42.1852L28.3891 14.0029C28.4861 14.0028 28.5847 14.0234 28.6782 14.0669ZM14.0841 27.7904L14.084 28.4021C13.9877 28.2197 13.9787 27.9961 14.0798 27.7985L14.0841 27.7904Z" fill="#FFB08A"/>
<path fill-rule="evenodd" clip-rule="evenodd" d="M27.644 0.600849C27.2881 0.769871 27.0007 1.05207 26.8284 1.4017C23.5741 8.00493 20.1963 13.0271 16.6948 16.4681C13.224 19.8791 8.15232 23.1904 1.47982 26.402L1.27295 26.5013C0.401847 26.9182 0.0396091 27.9502 0.463865 28.8063C0.636559 29.1547 0.923694 29.4359 1.27893 29.6042C7.91818 32.7515 13.0038 36.0376 16.5359 39.4627C20.059 42.8789 23.4673 47.9185 26.7609 54.5814L26.8607 54.7838C27.1582 55.389 27.7682 55.746 28.4082 55.7581L28.4081 0.428712C28.1514 0.428409 27.8907 0.483714 27.644 0.600849Z" fill="#FFB08A"/>
<path fill-rule="evenodd" clip-rule="evenodd" d="M28.1108 14.066C27.9702 14.1314 27.8569 14.2427 27.7901 14.3809C26.1076 17.8651 24.3587 20.4992 22.5433 22.2832C20.7548 24.0409 18.1161 25.7457 14.6272 27.3975L14.4578 27.4773C14.1215 27.6351 13.979 28.031 14.1396 28.3615C14.2065 28.4992 14.3198 28.6101 14.4602 28.6753C17.964 30.3023 20.6319 32.0041 22.4638 33.7805C24.2776 35.5393 26.0306 38.1587 27.7228 41.6386L27.8033 41.8049C27.9166 42.0399 28.1522 42.1792 28.3998 42.1842L28.4 14.002C28.303 14.0019 28.2044 14.0224 28.1108 14.066ZM42.705 27.7894L42.705 28.4011C42.8013 28.2187 42.8103 27.9951 42.7093 27.7975L42.705 27.7894Z" fill="#FF3600"/>
</g>
<defs>
<clipPath id="clip0">
<rect width="56.3429" height="55.3714" fill="white" transform="translate(0.285156 0.428711)"/>
</clipPath>
</defs>
</svg>
