<svg width="50" height="52" viewBox="0 0 50 52" fill="none" xmlns="http://www.w3.org/2000/svg">
<g clip-path="url(#clip0)">
<path d="M25.4719 51.3717C39.0187 51.3717 50.0005 40.0637 50.0005 26.1146C50.0005 12.1654 39.0187 0.857422 25.4719 0.857422C11.9252 0.857422 0.943359 12.1654 0.943359 26.1146C0.943359 40.0637 11.9252 51.3717 25.4719 51.3717Z" fill="#0090FF"/>
<path d="M25.3675 21.2334C25.9378 18.7661 26.6246 16.5482 27.3543 15.1007C27.6226 14.4092 28.7111 12.7533 29.9053 11.6594C31.8937 9.83612 34.1242 9.3736 36.4468 10.8748L36.2429 11.2079L36.4468 10.8748C37.6318 11.6404 38.107 12.4281 37.8986 13.1701C37.7453 13.7226 37.1581 14.1646 36.8438 14.1188C36.3839 14.1661 35.9209 14.0714 35.4794 13.7368C35.1077 13.442 34.821 13.0485 34.6501 12.5986C34.325 11.8093 33.8989 11.541 33.3761 11.6041C32.9974 11.6483 32.5575 11.8977 32.418 12.0651L32.0577 12.4755C31.7777 12.7826 31.529 13.1185 31.3157 13.4779C30.586 14.7297 29.913 17.0234 28.9794 21.7764L35.1667 22.7094L34.8264 25.2619L28.547 24.3148L28.2788 25.9944L28.2098 26.4143C28.173 26.6321 28.1331 26.8689 28.0871 27.1215L34.4278 28.0781L34.0644 30.6275L27.5751 29.6488C26.8254 32.929 25.8382 36.4445 25.1406 37.8321C24.8708 38.5251 23.7839 40.1778 22.5897 41.2734C20.6013 43.095 18.3708 43.5591 16.0482 42.0579C14.8632 41.2923 14.3879 40.503 14.5964 39.7611C14.7497 39.2086 15.3369 38.7682 15.6511 38.8139C16.1111 38.7666 16.574 38.8613 17.0155 39.1944C17.3559 39.4533 17.638 39.829 17.8449 40.3341C18.1699 41.1218 18.5961 41.3918 19.1189 41.3286C19.4975 41.2828 19.9375 41.0334 20.077 40.8661C21.4675 39.2717 22.5697 36.1998 23.9633 29.1057L17.7759 28.1712L18.1163 25.6187L24.3956 26.5658L24.6654 24.8878C24.725 24.5108 24.7889 24.1346 24.857 23.7591L18.5409 22.8072L18.9027 20.2578L25.3675 21.2334V21.2334Z" fill="white"/>
</g>
<defs>
<clipPath id="clip0">
<rect width="49.0571" height="50.5143" fill="white" transform="translate(0.943359 0.857422)"/>
</clipPath>
</defs>
</svg>
