<svg width="55" height="55" viewBox="0 0 55 55" fill="none" xmlns="http://www.w3.org/2000/svg">
<g clip-path="url(#clip0)">
<path d="M3.68359 41.2504L27.499 55.0004L51.3145 41.2504V13.7504L27.499 0.00146484L3.68359 13.7515V41.2504Z" fill="url(#paint0_linear)"/>
<path d="M25.0394 3.31299L7.77244 13.2824C7.80695 13.589 7.80695 13.8985 7.77244 14.2051L25.0405 24.1745C26.4965 23.1001 28.4826 23.1001 29.9386 24.1745L47.2067 14.205C47.1722 13.8984 47.172 13.589 47.2066 13.2824L29.9396 3.31303C28.4836 4.38736 26.4974 4.38736 25.0413 3.31303L25.0394 3.31299ZM48.8645 16.9588L31.5782 27.0393C31.7806 28.8374 30.7875 30.5574 29.1291 31.2812L29.1485 51.1092C29.4313 51.2326 29.6992 51.3872 29.9475 51.5704L47.2156 41.6012C47.0132 39.803 48.0063 38.0829 49.6647 37.3591V17.4205C49.3819 17.2971 49.1138 17.1424 48.8655 16.9592L48.8645 16.9588ZM6.13104 17.0696C5.88276 17.2528 5.61483 17.4076 5.33203 17.531V37.4696C6.99041 38.1934 7.98353 39.9134 7.78114 41.7116L25.0481 51.681C25.2964 51.4978 25.5645 51.343 25.8473 51.2196V31.281C24.1889 30.5572 23.1958 28.8371 23.3982 27.039L6.13119 17.0692L6.13104 17.0696Z" fill="url(#paint1_linear)"/>
<path d="M27.5 55L51.3154 41.25V13.75L27.5 27.5V55Z" fill="black" fill-opacity="0.25098"/>
<path d="M27.499 55V27.5L3.68359 13.75V41.25L27.499 55Z" fill="black" fill-opacity="0.039216"/>
<path d="M3.68359 13.75L27.499 27.5L51.3145 13.75L27.499 0L3.68359 13.75Z" fill="black" fill-opacity="0.13018"/>
<path d="M11.0742 19.9805H7.9375V35.1484H11.0742V19.9805Z" fill="white"/>
<path d="M16.5391 35.1484V29.584C17.3125 29.6484 18.0859 29.6484 18.7305 29.6484C23.1992 29.6484 24.4883 27.4355 24.4883 24.707C24.4883 21.3984 22.125 19.9805 18.4727 19.9805H13.4023V35.1484H16.5391ZM18.2363 27.4355C17.6562 27.4355 16.7969 27.4355 16.5391 27.4141V22.2578H18.4941C20.3848 22.2578 21.459 23.1602 21.459 24.8145V24.8574C21.459 26.1465 20.9863 27.4355 18.2363 27.4355V27.4355Z" fill="white"/>
<path d="M35.2285 19.9805H25.7109V35.1484H28.8477V28.4668H34.7988V26.1895H28.8262V22.2793H35.0137L35.2285 19.9805Z" fill="white"/>
<path d="M45.4941 22.9453L46.3105 20.8398C45.0859 19.959 43.4316 19.6367 41.3477 19.6367C38.3184 19.6367 35.8262 21.0547 35.8262 23.9551C35.8262 26.5547 37.7383 27.5859 39.6504 28.209L41.5625 28.8535C42.873 29.3047 43.9473 29.7344 43.9473 31.1523C43.9473 32.4414 42.8301 32.957 41.1328 32.957C39.4141 32.957 37.5664 32.4414 36.5137 31.7754L35.6973 34.0527C37.0723 34.9336 38.8125 35.3633 41.1543 35.3633C44.4844 35.3633 47.0625 33.9023 47.0625 30.7871C47.0625 27.8867 44.8496 26.9629 42.6152 26.2109L40.5313 25.5234C39.6289 25.2227 38.9414 24.8144 38.9414 23.6543C38.9414 22.4727 39.9082 22 41.3477 22C43.1094 22 44.4844 22.3223 45.4941 22.9453V22.9453Z" fill="white"/>
</g>
<defs>
<linearGradient id="paint0_linear" x1="3.68359" y1="27.5004" x2="51.315" y2="27.5004" gradientUnits="userSpaceOnUse">
<stop stop-color="#4A9EA1"/>
</linearGradient>
<linearGradient id="paint1_linear" x1="5.33235" y1="27.4969" x2="49.6637" y2="27.4969" gradientUnits="userSpaceOnUse">
<stop stop-color="#63D3D7"/>
</linearGradient>
<clipPath id="clip0">
<rect width="55" height="55" fill="white"/>
</clipPath>
</defs>
</svg>
