<svg width="282" height="74" viewBox="0 0 282 74" fill="none" xmlns="http://www.w3.org/2000/svg">
<path d="M4.99919 1C4.73965 18.5966 4.4232 36.293 2.77699 53.8254C2.31243 58.773 -0.883623 46.3732 3.85637 50.6508C14.2441 60.025 28.8742 64.9627 40.4278 73" stroke="#242424" stroke-width="1.33" stroke-linecap="round" stroke-linejoin="round"/>
<path d="M2.14258 44.4286C13.486 33.2998 24.9256 22.2529 35.8569 10.7144" stroke="#242424" stroke-width="1.33" stroke-linecap="round" stroke-linejoin="round"/>
<path d="M51.286 21.0002C43.7933 27.2353 27.5368 47.1828 36.5875 57.3494C47.0024 69.0483 68.9541 46.5126 73.1272 37.1589C76.5291 29.534 74.3372 20.4616 65.9526 17.1907C54.5848 12.756 42.566 21.6963 35.8574 29.5716" stroke="#242424" stroke-width="1.33" stroke-linecap="round" stroke-linejoin="round"/>
<path d="M69.5723 64.4286C72.9982 53.2593 76.1703 41.9525 79.985 30.9048C80.7521 28.6831 82.421 22.319 85.8262 22.5238C90.9879 22.8343 96.5428 32.2291 98.9691 35.7302C102.486 40.805 105.4 46.2948 107.477 52.1111C107.721 52.7948 108.163 56.6352 108.81 53.9524C110.08 48.6915 111.009 43.3123 111.731 37.9524C113.024 28.3548 114.144 18.6902 114.144 9" stroke="#242424" stroke-width="1.33" stroke-linecap="round" stroke-linejoin="round"/>
<path d="M119.857 14.1429C136.803 12.0049 153.643 10.7144 170.715 10.7144" stroke="#242424" stroke-width="1.33" stroke-linecap="round" stroke-linejoin="round"/>
<path d="M135.285 13.5713C134.542 29.7658 134.378 46.0506 132.428 62.1427" stroke="#242424" stroke-width="1.33" stroke-linecap="round" stroke-linejoin="round"/>
<path d="M169.001 10.7144C168.056 23.7284 167.336 36.7675 166.144 49.762C164.877 63.5676 160.751 44.6139 160.239 40.1747C158.268 23.0951 179.911 11.8197 194.715 15.8572" stroke="#242424" stroke-width="1.33" stroke-linecap="round" stroke-linejoin="round"/>
<path d="M145.572 46.7141C165.219 37.8579 184.043 30.4076 205.001 25.5713" stroke="#242424" stroke-width="1.33" stroke-linecap="round" stroke-linejoin="round"/>
<path d="M147.857 59.2857C162.993 52.6524 178.051 45.023 194.143 41" stroke="#242424" stroke-width="1.33" stroke-linecap="round" stroke-linejoin="round"/>
<path d="M229 13.5713C215.624 25.05 205.027 38.0562 195.857 52.9998" stroke="#242424" stroke-width="1.33" stroke-linecap="round" stroke-linejoin="round"/>
<path d="M187.857 1.57129C198.824 11.7292 211.323 21.5941 220.683 33.3808C225.513 39.4638 228.33 46.7442 231.857 53.5713" stroke="#242424" stroke-width="1.33" stroke-linecap="round" stroke-linejoin="round"/>
<path d="M222.143 15.8571C241.778 14.4515 261.371 13.9815 281 13" stroke="#242424" stroke-width="1.33" stroke-linecap="round" stroke-linejoin="round"/>
<path d="M262.714 12.4287C260.853 27.1017 258.834 41.7547 257 56.4287" stroke="#242424" stroke-width="1.33" stroke-linecap="round" stroke-linejoin="round"/>
</svg>
