<svg width="24" height="24" viewBox="0 0 24 24" fill="none" xmlns="http://www.w3.org/2000/svg">
<path d="M17.7123 20.548C17.7123 20.548 16.9726 19.6645 16.3562 18.8837C19.0479 18.1234 20.0753 16.4385 20.0753 16.4385C19.2329 16.9932 18.4315 17.3837 17.7123 17.6508C16.6849 18.0823 15.6986 18.37 14.7329 18.5343C12.7603 18.9042 10.9521 18.8015 9.41096 18.5138C8.23973 18.2878 7.23288 17.959 6.39041 17.6302C5.91781 17.4453 5.40411 17.2193 4.89041 16.9316C4.82877 16.8905 4.76712 16.87 4.70548 16.8289C4.66438 16.8083 4.64384 16.7878 4.62329 16.7672C4.25342 16.5617 4.04795 16.4179 4.04795 16.4179C4.04795 16.4179 5.03425 18.0617 7.64384 18.8426C7.0274 19.6234 6.26712 20.548 6.26712 20.548C1.72603 20.4042 0 17.4248 0 17.4248C0 10.8083 2.9589 5.4453 2.9589 5.4453C5.91781 3.22612 8.73288 3.28777 8.73288 3.28777L8.93836 3.53434C5.23973 4.60284 3.53425 6.22612 3.53425 6.22612C3.53425 6.22612 3.9863 5.97955 4.74658 5.63023C6.94521 4.66448 8.69178 4.39736 9.41096 4.33571C9.53425 4.31517 9.63699 4.29462 9.76027 4.29462C11.0137 4.13023 12.4315 4.08914 13.911 4.25352C15.863 4.47955 17.9589 5.05489 20.0959 6.22612C20.0959 6.22612 18.4726 4.68503 14.9795 3.61654L15.2671 3.28777C15.2671 3.28777 18.0822 3.22612 21.0411 5.4453C21.0411 5.4453 24 10.8083 24 17.4248C24 17.4248 22.2534 20.4042 17.7123 20.548ZM8.15753 10.9522C6.9863 10.9522 6.06164 11.9795 6.06164 13.233C6.06164 14.4864 7.00685 15.5138 8.15753 15.5138C9.32877 15.5138 10.2534 14.4864 10.2534 13.233C10.274 11.9795 9.32877 10.9522 8.15753 10.9522ZM15.6575 10.9522C14.4863 10.9522 13.5616 11.9795 13.5616 13.233C13.5616 14.4864 14.5068 15.5138 15.6575 15.5138C16.8288 15.5138 17.7534 14.4864 17.7534 13.233C17.7534 11.9795 16.8288 10.9522 15.6575 10.9522Z" fill="black"/>
</svg>
