<svg width="22" height="25" viewBox="0 0 22 25" fill="none" xmlns="http://www.w3.org/2000/svg">
<path d="M13.305 10.4536C12.5888 10.4536 12.0235 11.0693 12.0235 11.8357C12.0235 12.6021 12.6014 13.2177 13.305 13.2177C14.0212 13.2177 14.5866 12.6021 14.5866 11.8357C14.5866 11.0693 14.0086 10.4536 13.305 10.4536ZM8.71905 10.4536C8.00289 10.4536 7.4375 11.0693 7.4375 11.8357C7.4375 12.6021 8.01546 13.2177 8.71905 13.2177C9.43522 13.2177 10.0006 12.6021 10.0006 11.8357C10.0132 11.0693 9.43522 10.4536 8.71905 10.4536Z" fill="black"/>
<path d="M19.4118 0H2.57567C1.15591 0 0 1.15591 0 2.57567V19.4118C0 20.8315 1.15591 21.9874 2.57567 21.9874H16.8235L16.1576 19.6882L17.7658 21.1708L19.2861 22.5654L22 24.9149V2.57567C21.9874 1.15591 20.8315 0 19.4118 0ZM14.562 16.2707C14.562 16.2707 14.1096 15.7304 13.7327 15.2656C15.3786 14.8007 16.0069 13.783 16.0069 13.783C15.4917 14.1222 15.0017 14.3609 14.562 14.5243C13.9338 14.7881 13.3307 14.9515 12.7401 15.0645C11.534 15.2907 10.4283 15.2279 9.48601 15.052C8.76985 14.9138 8.1542 14.7253 7.63906 14.5117C7.35008 14.3986 7.03598 14.2604 6.72187 14.0845C6.68418 14.0594 6.64649 14.0468 6.60879 14.0217C6.58367 14.0091 6.5711 13.9966 6.55854 13.9966C6.33238 13.8709 6.20674 13.783 6.20674 13.783C6.20674 13.783 6.80982 14.7756 8.40548 15.253C8.02855 15.7304 7.56368 16.2833 7.56368 16.2833C4.78698 16.1953 3.73158 14.3861 3.73158 14.3861C3.73158 10.3781 5.54083 7.12393 5.54083 7.12393C7.35008 5.77955 9.05882 5.81725 9.05882 5.81725L9.18446 5.96802C6.9229 6.6088 5.89263 7.60137 5.89263 7.60137C5.89263 7.60137 6.16905 7.4506 6.63392 7.24957C7.9783 6.65905 9.04626 6.50828 9.48601 6.45802C9.56139 6.44546 9.62421 6.4329 9.6996 6.4329C10.466 6.33238 11.333 6.30725 12.2376 6.40777C13.4312 6.54597 14.7127 6.89777 16.0194 7.60137C16.0194 7.60137 15.0268 6.65905 12.8909 6.01828L13.0668 5.81725C13.0668 5.81725 14.7881 5.77955 16.5848 7.12393C16.5848 7.12393 18.3941 10.3781 18.3941 14.3861C18.3941 14.3735 17.3387 16.1828 14.562 16.2707Z" fill="black"/>
</svg>
