<svg width="20" height="20" viewBox="0 0 20 20" fill="none" xmlns="http://www.w3.org/2000/svg">
<path d="M14.7602 17.1234C14.7602 17.1234 14.1438 16.3872 13.6302 15.7365C15.8732 15.1029 16.7294 13.6988 16.7294 13.6988C16.0274 14.1611 15.3596 14.4865 14.7602 14.7091C13.9041 15.0687 13.0822 15.3084 12.2774 15.4453C10.6336 15.7536 9.12675 15.668 7.84247 15.4282C6.86644 15.2399 6.0274 14.9659 5.32534 14.6919C4.93151 14.5378 4.50342 14.3495 4.07534 14.1097C4.02397 14.0755 3.9726 14.0584 3.92123 14.0242C3.88698 14.007 3.86987 13.9899 3.85274 13.9727C3.54452 13.8015 3.37329 13.6817 3.37329 13.6817C3.37329 13.6817 4.19521 15.0515 6.36987 15.7022C5.85617 16.3529 5.2226 17.1234 5.2226 17.1234C1.43836 17.0036 0 14.5207 0 14.5207C0 9.007 2.46575 4.53783 2.46575 4.53783C4.93151 2.68851 7.2774 2.73989 7.2774 2.73989L7.44863 2.94536C4.36644 3.83578 2.94521 5.18851 2.94521 5.18851C2.94521 5.18851 3.32192 4.98304 3.95548 4.69194C5.78768 3.88715 7.24315 3.66455 7.84247 3.61317C7.94521 3.59606 8.03082 3.57893 8.13356 3.57893C9.17808 3.44194 10.3596 3.4077 11.5925 3.54468C13.2192 3.73304 14.9657 4.21249 16.7466 5.18851C16.7466 5.18851 15.3938 3.90427 12.4829 3.01386L12.7226 2.73989C12.7226 2.73989 15.0685 2.68851 17.5342 4.53783C17.5342 4.53783 20 9.007 20 14.5207C20 14.5207 18.5445 17.0036 14.7602 17.1234ZM6.79794 9.12691C5.82192 9.12691 5.05137 9.983 5.05137 11.0276C5.05137 12.0721 5.83904 12.9282 6.79794 12.9282C7.77397 12.9282 8.5445 12.0721 8.5445 11.0276C8.56167 9.983 7.77397 9.12691 6.79794 9.12691ZM13.0479 9.12691C12.0719 9.12691 11.3013 9.983 11.3013 11.0276C11.3013 12.0721 12.089 12.9282 13.0479 12.9282C14.024 12.9282 14.7945 12.0721 14.7945 11.0276C14.7945 9.983 14.024 9.12691 13.0479 9.12691Z" fill="#272C3A"/>
</svg>
