<svg width="18" height="15" viewBox="0 0 18 15" fill="none" xmlns="http://www.w3.org/2000/svg">
<g clip-path="url(#clip0)">
<path d="M17.25 0.749729C16.5318 1.25634 15.7366 1.64381 14.895 1.89723C14.4433 1.37786 13.843 1.00974 13.1752 0.842675C12.5075 0.675599 11.8046 0.717625 11.1616 0.963073C10.5185 1.20851 9.9663 1.64553 9.57975 2.21502C9.19312 2.7845 8.99077 3.45898 9 4.14723V4.89723C7.68195 4.93141 6.37595 4.63908 5.19826 4.04631C4.02055 3.45354 3.00774 2.57871 2.25 1.49973C2.25 1.49973 -0.75 8.24973 6 11.2497C4.4554 12.2982 2.61537 12.8239 0.75 12.7497C7.5 16.4997 15.75 12.7497 15.75 4.12473C15.7493 3.91582 15.7292 3.70743 15.69 3.50223C16.4554 2.74735 16.9956 1.79426 17.25 0.749729Z" fill="#272C3A" stroke="#272C3A" stroke-width="1.33" stroke-linecap="round" stroke-linejoin="round"/>
</g>
<defs>
<clipPath id="clip0">
<rect width="18" height="15" fill="white"/>
</clipPath>
</defs>
</svg>
